<svg xmlns="http://www.w3.org/2000/svg" width="320" height="320"><defs><clipPath id="a"><path data-name="Rectangle 37" fill="none" d="M0 0h49.59v40.723H0z"/></clipPath><clipPath id="b"><path data-name="Rectangle 38" fill="none" d="M0 0h41.734v34.27H0z"/></clipPath></defs><g data-name="Group 318"><path data-name="Path 339" d="M160 0A160 160 0 1 1 0 160 160 160 0 0 1 160 0Z" fill="#f7f7ea"/><g data-name="Group 198"><path data-name="Path 257" d="m140.134 142.443 72.768-36.985s30.58 57.316-7.843 70.631-64.925-33.646-64.925-33.646" fill="#481cea"/><path data-name="Path 258" d="M96.44 164.576a4.34 4.34 0 0 1-3.72-6.565l17.042-28.517-27.285.434h-.071a4.339 4.339 0 0 1-.068-8.677l29.293-.467a7.213 7.213 0 0 1 6.609 11.437l-18.071 30.242a4.34 4.34 0 0 1-3.729 2.113" fill="#481cea"/><path data-name="Path 259" d="M203.738 91.023a7.2 7.2 0 0 1-6.438-11.415l12.168-20.532a4.338 4.338 0 0 1 7.465 4.423l-11.142 18.808 26.868-.528h.088a4.339 4.339 0 0 1 .083 8.677l-28.873.567h-.215" fill="#481cea"/><path data-name="Path 260" d="M218.836 155.199s-3.218-11.013-21.405-1.219c0 0 8.393 2.332 5.6 4.2s-13.991-4.663-20.52 0a20.946 20.946 0 0 0-7.981 11.578s23.76 11.56 38.745-3.425c2.039-2.039 4.187-7.84 5.565-11.131" fill="#f7f7ea"/><g data-name="Group 196" opacity=".71"><g data-name="Group 125"><g data-name="Group 124" clip-path="url(#a)" transform="translate(61.043 172.868)"><path data-name="Path 103" d="M49.588 20.361c0 11.246-11.1 20.366-24.793 20.366S.001 31.611.001 20.366 11.101.005 24.795.005s24.8 9.116 24.8 20.361" fill="#ee76ab"/></g></g></g><g data-name="Group 197" opacity=".71"><g data-name="Group 128"><g data-name="Group 127" clip-path="url(#b)" transform="translate(244.753 71.764)"><path data-name="Path 104" d="M41.734 17.135c0 9.464-9.342 17.135-20.867 17.135S0 26.599 0 17.135 9.342 0 20.867 0s20.867 7.671 20.867 17.135" fill="#ee76ab"/></g></g></g></g></g></svg>