<?xml version="1.0" encoding="utf-8"?>
<!-- Generator: Adobe Illustrator 26.0.3, SVG Export Plug-In . SVG Version: 6.00 Build 0)  -->
<svg version="1.1" id="Group_96" xmlns="http://www.w3.org/2000/svg" xmlns:xlink="http://www.w3.org/1999/xlink" x="0px" y="0px"
	 viewBox="0 0 799.3 216.7" style="enable-background:new 0 0 799.3 216.7;" xml:space="preserve">
<style type="text/css">
	.st0{clip-path:url(#SVGID_00000054225104541415143040000007062408886549689269_);}
	.st1{fill:#F7F7EA;}
</style>
<g>
	<defs>
		<rect id="SVGID_1_" width="847.3" height="216.7"/>
	</defs>
	<clipPath id="SVGID_00000049911118568987461520000012646743017875837065_">
		<use xlink:href="#SVGID_1_"  style="overflow:visible;"/>
	</clipPath>
	<g id="Group_95" style="clip-path:url(#SVGID_00000049911118568987461520000012646743017875837065_);">
		<path id="Path_55" class="st1" d="M401.3,156c9.2-1,14-5.5,14-11.6c0-7.9-8-10.1-19.6-13.7c-14.5-4.5-28.4-9.5-28.5-28
			C367.1,85.3,379.5,70.5,403,68c6.2-0.7,12.6-0.3,18.6,1.3c7.3,2.2,10.8,6,11.6,13.4l0.6,6.3c0.9,8.8-3.9,12.9-9.4,13.5
			c-5.5,0.6-9.6-2.8-10.5-9.2l-0.8-4.8c-3.6-0.4-7.2-0.4-10.8-0.1c-9.5,1-12.8,5-12.8,10.4c0,6.3,4.9,8.1,17.5,11.9
			c15.4,4.7,30.4,10.5,30.4,29.5c0.1,19.1-14.8,33.9-36.1,36.1c-5.6,0.6-14.9,0.6-21.6-1c-7.8-2-11.4-6-12-14.1l-0.5-6.7
			c-0.6-9.5,4.5-13,9.3-13.5c5.3-0.6,9.9,2.7,10.7,9.2l0.6,5.6C391.6,156.5,398,156.3,401.3,156"/>
		<path id="Path_56" class="st1" d="M452.5,74.6c0-6.3,4.6-11.7,10.9-12.5c6.1-0.6,11,3.9,11,10.2l0.2,56.5c0,9.9,4.8,18.3,16,17.1
			c11.1-1.2,15.9-10.6,15.9-20.5L506.3,69c0-6.3,4.6-11.7,10.9-12.5c6.1-0.6,11,3.9,11,10.2l0.2,56.2c0.1,21.3-12.3,41.2-37.7,43.9
			s-37.9-14.7-38-35.9L452.5,74.6z"/>
		<path id="Path_57" class="st1" d="M547.9,65.7c0-6.2,4.8-11.9,10.9-12.5l22.2-2.3c22-2.3,39.2,9.9,39.3,32.8
			c0.1,20.3-17,38.6-39,40.9l-11.1,1.2l0.1,20.8c0,6.3-4.7,11.7-11,12.6c-6.1,0.6-11-4.1-11-10.2L547.9,65.7z M580.8,104.5
			c10.5-1.1,17.4-9.7,17.4-18.5c0-10.9-7-15.9-17.5-14.8l-10.8,1.1l0.1,33.3L580.8,104.5z"/>
		<path id="Path_58" class="st1" d="M633.6,56.7c-0.1-6.4,4.6-11.8,10.9-12.5l45.2-4.8c4.9-0.5,9.3,3.1,9.8,8c0,0.4,0.1,0.8,0,1.1
			c0,5.5-4.4,10.6-9.7,11.2l-34.1,3.6l0.1,20.6l25.3-2.7c4.8-0.6,9.2,2.9,9.7,7.7c0,0.4,0.1,0.8,0.1,1.2c0,5.5-4.4,10.6-9.7,11.2
			l-25.3,2.7l0.1,23.4l34.1-3.6c4.9-0.5,9.3,3.1,9.8,8c0,0.4,0.1,0.8,0,1.2c0,5.5-4.4,10.6-9.7,11.2l-45.2,4.8
			c-6.2,0.7-11-3.8-11-10.2L633.6,56.7z"/>
		<path id="Path_59" class="st1" d="M737.1,129c0,6.3-4.7,11.7-11,12.6c-6.1,0.6-11-4.1-11-10.2l-0.3-83.2c0-6.2,4.8-11.9,10.9-12.5
			l25.9-2.7c19.8-2.1,35.8,10.6,35.9,31.2c0.1,12.8-6.7,22.6-16.2,28.5l16.1,24.5c1.4,2,2.2,4.3,2.4,6.7c0,6.3-4.7,11.6-11,12.3
			c-4.1,0.4-7.7-2.3-9.5-5l-18.9-30.5l-13.3,1.4L737.1,129z M736.9,84.2l13.5-1.4c9.2-1,15.2-7.5,15.2-16.4c0-8.6-6.1-14-15.3-13
			l-13.5,1.4L736.9,84.2z"/>
		<path id="Path_60" class="st1" d="M0,122.1c0-6.2,4.7-11.9,10.7-12.5c5.8-0.6,9.5,1.5,11.7,5.9l21.8,42.4l0.3,0l21.4-46.9
			c2-4.7,6.5-8,11.7-8.3c6.1-0.6,10.8,4.1,10.8,10.3l0.3,84.2c0,6.3-4.6,11.7-10.9,12.5c-5.5,0.6-10.4-3.3-11.1-8.8
			c-0.1-0.5-0.1-0.9-0.1-1.4L66.5,153l-0.9,0.1l-10,22.8c-1.9,4.7-6.2,8-11.2,8.6c-4.7,0.6-9.2-1.9-11.3-6.2l-10.1-20.7l-0.9,0.1
			l0.2,46.4c0,6.3-4.7,11.7-11,12.6c-6.1,0.6-11-3.9-11-10.2L0,122.1z"/>
		<path id="Path_61" class="st1" d="M122.3,116.2c3.6-13.9,9.8-19.4,20.9-20.5c12-1.3,17.3,2.8,21.1,16.1l20,72
			c0.3,1,0.5,2.1,0.5,3.2c0,6.2-4.8,11.9-10.9,12.5c-4.8,0.7-9.3-2.4-10.5-7.1l-4.2-16.8l-31.2,3.3l-4.1,17.7
			c-1.2,5-5.4,8.7-10.5,9.3c-6.1,0.6-11-4.1-11-10.2c0-1.1,0.1-2.2,0.4-3.3L122.3,116.2z M132.3,159.8l22.2-2.3L144,115.9l-1.5,0.2
			L132.3,159.8z"/>
		<path id="Path_62" class="st1" d="M197.9,102.4c0-6.2,4.8-11.9,10.9-12.5l18.9-2c26.2-2.8,46,7.5,46.2,47.7
			c0.2,40.4-22,54.7-46.1,57.2l-18.6,2c-6.1,0.6-11-3.9-11-10.2L197.9,102.4z M227.8,172.5c14.3-1.5,24.4-7.8,24.3-34.6
			c-0.1-27.1-9.9-31.2-24.2-29.7L220,109l0.3,64.2L227.8,172.5z"/>
		<path id="Path_63" class="st1" d="M290.4,92.7c-0.1-6.4,4.6-11.8,10.9-12.5l45.2-4.8c4.9-0.5,9.3,3.1,9.8,8c0,0.4,0.1,0.8,0,1.1
			c0,5.5-4.4,10.6-9.7,11.2l-34.1,3.6l0.1,20.6l25.3-2.7c4.8-0.6,9.2,2.9,9.7,7.7c0,0.4,0.1,0.8,0.1,1.2c0,5.5-4.4,10.6-9.7,11.2
			l-25.3,2.7l0.1,23.4l34.1-3.6c4.9-0.5,9.3,3.1,9.8,8c0,0.4,0.1,0.8,0,1.2c0,5.5-4.4,10.6-9.7,11.2l-45.2,4.8
			c-6.2,0.7-11-3.8-11-10.2L290.4,92.7z"/>
		<path id="Path_65" class="st1" d="M769.3,155.8c15.2-1.4,28.1,0.6,28.5,4.3s-12,8-27.2,9.4l-374,34.4c-14.8,1.4-27.7-0.5-28-4.3
			c-0.3-3.8,12-8.1,26.8-9.4L769.3,155.8z"/>
	</g>
</g>
</svg>
