<svg data-name="Group 441" xmlns="http://www.w3.org/2000/svg" width="901.166" height="200.29"><defs><clipPath id="a"><path data-name="Rectangle 2669" fill="none" d="M0 0h901.166v200.29H0z"/></clipPath></defs><g data-name="Group 340" clip-path="url(#a)" fill="#f7f7ea"><path data-name="Path 187" d="M0 93.748a13.947 13.947 0 0 1 12.294-13.64c6.566-.628 10.777 1.659 13.3 6.473l24.587 46.487.336-.032 24.591-51.194c2.526-5.3 7.074-8.427 13.3-9.026a11.072 11.072 0 0 1 12.3 11.283v92.13a13.986 13.986 0 0 1-12.463 13.658 11.233 11.233 0 0 1-12.633-11.252v-50.7l-1.009.1-11.451 24.84a15.578 15.578 0 0 1-12.8 9.313 12.679 12.679 0 0 1-12.8-6.86L26.1 132.68l-1.01.1v50.7a14.151 14.151 0 0 1-12.627 13.662A11.1 11.1 0 0 1 0 185.878Z"/><path data-name="Path 188" d="M139.275 87.978c4.212-15.224 11.285-21.117 23.913-22.333 13.642-1.308 19.7 3.165 23.914 17.749l22.4 78.866a9.978 9.978 0 0 1 .5 3.49 14.117 14.117 0 0 1-12.461 13.658c-5.724.547-10.607-2.689-11.958-7.781l-4.712-18.41-35.536 3.4-4.714 19.314a13.762 13.762 0 0 1-11.961 10.078 11.2 11.2 0 0 1-12.46-11.268 10.74 10.74 0 0 1 .5-3.586Zm11.285 47.764 25.262-2.421-11.793-45.525-1.681.162Z"/><path data-name="Path 189" d="M225.503 73.314a14.116 14.116 0 0 1 12.463-13.658l21.557-2.067c29.807-2.855 52.373 8.456 52.373 52.413 0 44.13-25.259 59.687-52.709 62.317l-21.22 2.034a11.105 11.105 0 0 1-12.463-11.268Zm33.683 76.773c16.334-1.564 27.786-8.388 27.786-37.694 0-29.646-11.115-34.136-27.449-32.571l-8.925.857v70.233Z"/><path data-name="Path 190" d="M330.93 63.209a13.737 13.737 0 0 1 12.463-13.658l51.53-4.938a10.007 10.007 0 0 1 11.115 10.049 12.626 12.626 0 0 1-11.115 12.185l-38.9 3.727v22.568l28.8-2.76a9.882 9.882 0 0 1 11.11 9.885 12.623 12.623 0 0 1-11.113 12.182l-28.8 2.76v25.6l38.9-3.727a10.007 10.007 0 0 1 11.115 10.051 12.624 12.624 0 0 1-11.115 12.181l-51.53 4.939c-7.074.678-12.463-4.2-12.463-11.269Z"/><path data-name="Path 191" d="M458.585 132.828c10.441-1 16-5.912 16-12.648 0-8.591-9.092-11.085-22.229-15.049-16.5-4.989-32.333-10.544-32.333-30.755 0-19.032 14.144-35.208 40.923-37.774a59.64 59.64 0 0 1 21.218 1.5c8.253 2.41 12.3 6.569 13.137 14.742l.671 6.841c1.013 9.67-4.546 14.076-10.777 14.674s-10.946-3.161-11.956-10.137l-.843-5.308a62.648 62.648 0 0 0-12.293-.17c-10.777 1.032-14.652 5.446-14.652 11.342 0 6.906 5.561 8.9 19.873 13.084 17.513 5.229 34.524 11.681 34.524 32.4 0 20.886-17.011 37-41.26 39.323-6.4.614-17.009.621-24.587-1.179-8.925-2.174-12.967-6.675-13.642-15.535l-.5-7.362c-.672-10.378 5.221-14.142 10.61-14.658 6.063-.583 11.282 2.958 12.125 10.121l.674 6.166c4.377.929 11.62.74 15.325.383"/><path data-name="Path 192" d="M517.36 44.16a13.984 13.984 0 0 1 12.463-13.658 11.106 11.106 0 0 1 12.46 11.269v61.813c0 10.779 5.389 20.031 18.187 18.805 12.631-1.211 18.19-11.511 18.19-22.29V38.29a13.984 13.984 0 0 1 12.46-13.658A11.106 11.106 0 0 1 603.583 35.9v61.471c0 23.242-14.146 44.98-43.113 47.754s-43.11-16.248-43.11-39.49Z"/><path data-name="Path 193" d="M625.986 34.927a14.115 14.115 0 0 1 12.463-13.658l25.259-2.421c25.094-2.405 44.627 11.051 44.627 36.146 0 22.231-19.532 42.126-44.627 44.531l-12.63 1.211v22.738a14.155 14.155 0 0 1-12.629 13.673 11.194 11.194 0 0 1-12.463-11.268Zm37.386 42.56c11.958-1.144 19.871-10.494 19.871-20.095 0-11.958-7.913-17.429-19.871-16.285l-12.294 1.18V78.67Z"/><path data-name="Path 194" d="M723.661 25.564a13.737 13.737 0 0 1 12.463-13.658l51.53-4.938a10.01 10.01 0 0 1 11.115 10.05A12.622 12.622 0 0 1 787.654 29.2l-38.901 3.726v22.571l28.8-2.76a9.886 9.886 0 0 1 11.113 9.883 12.621 12.621 0 0 1-11.113 12.18l-28.8 2.76v25.6l38.9-3.727a10.009 10.009 0 0 1 11.115 10.053 12.62 12.62 0 0 1-11.115 12.179l-51.53 4.939c-7.074.678-12.463-4.2-12.463-11.269Z"/><path data-name="Path 195" d="M841.213 105.249a14.155 14.155 0 0 1-12.633 13.674 11.2 11.2 0 0 1-12.463-11.269V16.7A14.118 14.118 0 0 1 828.58 3.045L858.053.22c22.566-2.163 40.753 11.757 40.753 34.328 0 13.98-7.746 24.659-18.525 31.08l18.189 26.889c1.179 1.74 2.7 4.794 2.7 7.32 0 7.244-5.727 12.675-12.633 13.338-4.717.453-8.758-2.529-10.779-5.537l-21.391-33.485-15.154 1.454Zm0-49.013 15.323-1.469c10.441-1 17.347-8.063 17.347-17.829 0-9.435-6.906-15.34-17.347-14.34l-15.323 1.47Z"/><path data-name="Path 196" d="M430.502 200.29a11.695 11.695 0 0 1-1.13-23.333l457.454-45a11.694 11.694 0 1 1 2.288 23.276l-457.454 45a11.92 11.92 0 0 1-1.158.057"/></g></svg>