<svg xmlns="http://www.w3.org/2000/svg" width="25.898" height="28.265" viewBox="0 0 25.898 28.265">
  <g id="Group_334" data-name="Group 334" transform="translate(-559.017 -590.603)">
    <path id="Path_153" data-name="Path 153" d="M280.213.694c.16-.568.977-.844,1.8-.611s1.353.891,1.193,1.458L279.27,15.489c-.156.551-.949.835-1.775.6s-1.377-.9-1.221-1.449Z" transform="translate(282.769 590.603)" fill="#f7f7ea"/>
    <path id="Path_154" data-name="Path 154" d="M300.092,18.775c.4-.433,1.253-.31,1.884.272s.8,1.407.4,1.841L292.561,31.54c-.388.421-1.224.314-1.855-.268s-.822-1.424-.433-1.845Z" transform="translate(274.819 579.955)" fill="#f7f7ea"/>
    <path id="Path_155" data-name="Path 155" d="M313.783,50.1c.567-.16,1.23.392,1.463,1.219s-.051,1.62-.618,1.781l-13.936,3.933c-.551.156-1.207-.373-1.44-1.2s.044-1.644.595-1.8Z" transform="translate(269.588 561.81)" fill="#f7f7ea"/>
  </g>
</svg>
